<?xml version="1.0" standalone="no"?>
<!DOCTYPE svg PUBLIC "-//W3C//DTD SVG 20010904//EN"
 "http://www.w3.org/TR/2001/REC-SVG-20010904/DTD/svg10.dtd">
<svg version="1.0" xmlns="http://www.w3.org/2000/svg"
 width="460.000000pt" height="326.000000pt" viewBox="0 0 460.000000 326.000000"
 preserveAspectRatio="xMidYMid meet">
<g transform="translate(0.000000,326.000000) scale(0.100000,-0.100000)"
fill="#000000" stroke="none">
<path d="M2324 2751 c-113 -29 -235 -136 -275 -240 -27 -70 -35 -162 -20 -229
24 -113 38 -131 365 -459 183 -185 318 -313 329 -313 11 0 144 126 324 308
330 332 356 366 371 479 24 184 -64 350 -226 426 -61 29 -75 32 -167 32 -91 0
-106 -3 -165 -31 -36 -17 -83 -46 -103 -64 l-37 -32 -41 37 c-68 61 -140 89
-239 92 -47 1 -99 -1 -116 -6z m818 -33 c9 -1 16 -7 15 -13 -1 -5 4 -9 11 -7
51 10 202 -149 202 -213 0 -9 4 -14 8 -11 9 6 11 -15 11 -119 0 -101 -1 -105
-11 -105 -4 0 -8 -7 -8 -15 0 -21 -28 -75 -51 -100 -108 -113 -133 -141 -130
-150 1 -5 0 -7 -4 -3 -4 3 -76 -63 -161 -149 -94 -95 -158 -152 -165 -147 -7
4 -9 3 -5 -4 7 -12 -105 -127 -131 -134 -13 -3 -64 42 -173 151 -85 86 -148
151 -139 146 8 -6 7 -3 -3 5 -40 34 -92 82 -73 69 18 -13 19 -13 6 4 -7 9 -17
17 -21 17 -4 0 -44 36 -89 80 -45 44 -79 80 -75 80 4 0 -5 9 -20 21 -14 11
-26 25 -26 31 0 5 -9 22 -20 37 -26 37 -32 69 -35 176 -3 87 -2 93 33 159 40
75 83 126 105 126 17 0 39 24 32 33 -3 4 -2 5 1 2 4 -2 21 3 38 13 40 21 53
24 163 27 61 1 90 -1 86 -8 -3 -6 -1 -7 6 -3 6 4 35 -6 65 -23 29 -17 56 -27
60 -23 4 4 6 0 4 -8 -2 -8 3 -14 10 -12 8 1 16 -7 19 -18 9 -34 48 -36 78 -5
14 16 25 23 25 17 0 -6 11 0 25 13 13 14 31 25 40 25 10 0 13 5 9 12 -4 6 -3
8 4 4 6 -3 13 -2 17 4 4 6 10 8 14 6 4 -3 19 3 33 12 25 17 75 16 220 0z"/>
<path d="M2363 2699 c-23 -4 -51 -13 -63 -19 -11 -6 -20 -7 -20 -3 0 4 -4 4
-8 -2 -4 -5 -16 -17 -26 -25 -18 -14 -19 -14 -6 10 l13 25 -20 -20 c-11 -11
-19 -22 -17 -24 2 -2 -17 -24 -42 -49 -70 -72 -89 -120 -89 -227 0 -65 5 -99
17 -123 9 -18 12 -30 7 -26 -6 3 7 -18 27 -47 39 -53 112 -129 125 -129 4 0
10 -8 13 -18 4 -11 18 -25 31 -32 14 -7 25 -20 25 -28 0 -9 3 -13 6 -9 3 3 84
-73 179 -168 95 -95 183 -179 195 -185 18 -10 26 -7 56 19 19 17 33 31 31 31
-2 0 20 25 49 55 30 30 58 55 64 55 6 0 9 4 5 9 -3 5 4 12 15 16 11 4 18 11
15 16 -4 5 -3 9 2 9 11 0 86 70 76 71 -4 0 2 4 15 10 13 5 20 13 17 19 -3 5
-2 10 4 10 12 0 156 143 153 153 -1 4 2 7 7 7 14 0 81 73 81 88 0 6 4 12 9 12
10 0 47 89 56 137 7 37 -15 173 -28 173 -4 0 -6 4 -3 9 4 5 -5 22 -19 39 -19
23 -22 32 -12 42 10 10 7 11 -12 5 -15 -5 -21 -4 -17 3 4 6 -14 23 -39 38 -29
16 -44 32 -41 40 3 7 0 16 -6 20 -7 4 -8 3 -4 -4 8 -14 -14 -11 -59 7 -33 14
-157 13 -195 -1 -14 -6 -33 -11 -42 -13 -23 -5 -68 -35 -68 -46 0 -5 -6 -9
-14 -9 -8 0 -23 -11 -34 -25 -37 -47 -57 -46 -114 8 -48 45 -108 85 -108 71 0
-4 -6 -1 -14 5 -8 7 -34 14 -58 17 -23 3 -50 6 -58 8 -8 2 -34 0 -57 -5z m196
-58 c25 -13 68 -45 96 -72 29 -27 58 -49 66 -49 8 0 37 21 64 46 28 25 70 58
95 72 40 24 55 27 140 27 110 0 155 -17 227 -87 60 -59 87 -125 87 -218 0
-127 -12 -143 -334 -465 l-280 -280 -284 285 c-263 264 -285 289 -306 345 -18
48 -21 75 -18 135 7 121 62 205 171 260 58 30 68 31 147 28 63 -3 96 -10 129
-27z"/>
<path d="M2290 2606 c0 -2 7 -7 16 -10 8 -3 12 -2 9 4 -6 10 -25 14 -25 6z"/>
<path d="M2856 2577 c3 -10 9 -15 12 -12 3 3 0 11 -7 18 -10 9 -11 8 -5 -6z"/>
<path d="M2217 2543 c-84 -89 -89 -248 -11 -350 18 -24 33 -33 54 -33 46 0 50
38 11 97 -25 37 -31 57 -31 100 0 52 26 123 50 138 14 9 13 48 -2 63 -19 19
-42 14 -71 -15z m42 -30 c-12 -15 -12 -16 1 -8 8 4 6 -3 -6 -16 -34 -39 -47
-83 -40 -141 8 -75 8 -78 18 -78 5 0 6 -4 3 -10 -3 -5 -3 -10 2 -10 14 0 31
-47 22 -62 -7 -10 -9 -10 -9 0 0 7 -4 11 -9 8 -8 -5 -25 22 -21 33 1 2 -3 7
-10 11 -6 4 -12 13 -13 21 -2 8 -6 19 -9 25 -8 12 -10 97 -4 137 6 36 34 79
47 72 5 -4 9 -3 8 2 -4 21 2 33 17 33 14 0 15 -2 3 -17z"/>
<path d="M2835 2561 c-3 -5 -2 -12 3 -15 5 -3 9 1 9 9 0 17 -3 19 -12 6z"/>
<path d="M2286 2381 c-3 -5 2 -15 12 -22 15 -12 16 -12 5 2 -7 9 -10 19 -6 22
3 4 4 7 0 7 -3 0 -8 -4 -11 -9z"/>
<path d="M2280 2297 c0 -2 6 -10 14 -16 11 -9 16 -9 22 1 4 7 4 10 -1 6 -4 -4
-14 -3 -22 3 -7 6 -13 9 -13 6z"/>
<path d="M3236 2201 c-14 -15 -15 -21 -4 -27 7 -4 10 -3 5 1 -4 5 0 17 10 27
9 10 14 18 11 18 -3 0 -13 -9 -22 -19z"/>
<path d="M3140 2121 c5 -10 2 -20 -8 -29 -15 -11 -14 -12 5 -2 15 7 20 16 16
27 -5 13 -2 15 11 10 9 -4 15 -3 11 2 -3 6 -14 9 -25 8 -13 -1 -16 -5 -10 -16z"/>
<path d="M2299 2103 c-13 -16 -12 -17 4 -4 9 7 17 15 17 17 0 8 -8 3 -21 -13z"/>
<path d="M3069 2043 c-12 -16 -12 -17 2 -6 9 7 20 9 24 5 5 -4 5 -1 1 6 -9 16
-11 15 -27 -5z"/>
<path d="M2379 2023 c-8 -9 -9 -14 -2 -10 6 4 13 1 16 -5 3 -7 4 -3 4 10 -1
26 -1 26 -18 5z"/>
<path d="M2982 1966 c7 -8 15 -12 17 -11 5 6 -10 25 -20 25 -5 0 -4 -6 3 -14z"/>
<path d="M2435 1960 c-4 -6 1 -7 11 -3 14 5 16 3 10 -13 -5 -14 -4 -16 5 -7
12 12 5 33 -11 33 -5 0 -12 -4 -15 -10z"/>
<path d="M2500 1891 c0 -6 4 -13 10 -16 6 -3 7 1 4 9 -7 18 -14 21 -14 7z"/>
<path d="M2530 1891 c0 -6 4 -13 10 -16 6 -3 7 1 4 9 -7 18 -14 21 -14 7z"/>
<path d="M2845 1807 c-15 -12 -16 -15 -4 -22 8 -5 11 -5 7 0 -4 4 0 14 10 21
23 18 11 18 -13 1z"/>
<path d="M2614 1789 c0 -13 3 -15 13 -7 7 6 13 14 13 18 0 3 -6 7 -13 7 -7 0
-13 -8 -13 -18z"/>
<path d="M2691 1723 c7 -12 15 -20 18 -17 3 2 -3 12 -13 22 -17 16 -18 16 -5
-5z"/>
<path d="M2729 1693 c-13 -16 -12 -17 4 -4 9 7 17 15 17 17 0 8 -8 3 -21 -13z"/>
<path d="M2805 2750 c-3 -5 -1 -10 4 -10 6 0 11 5 11 10 0 6 -2 10 -4 10 -3 0
-8 -4 -11 -10z"/>
<path d="M3240 2751 c0 -10 19 -25 25 -20 1 2 -3 10 -11 17 -8 7 -14 8 -14 3z"/>
<path d="M2175 2730 c-3 -6 1 -7 9 -4 18 7 21 14 7 14 -6 0 -13 -4 -16 -10z"/>
<path d="M2056 2608 c3 -5 10 -6 15 -3 13 9 11 12 -6 12 -8 0 -12 -4 -9 -9z"/>
<path d="M2003 2155 c0 -7 6 -11 14 -8 7 3 13 6 13 8 0 2 -6 5 -13 8 -8 3 -14
-1 -14 -8z"/>
<path d="M3331 2054 c0 -11 3 -14 6 -6 3 7 2 16 -1 19 -3 4 -6 -2 -5 -13z"/>
<path d="M2173 1985 c0 -8 4 -12 9 -9 5 3 6 10 3 15 -9 13 -12 11 -12 -6z"/>
<path d="M3256 1984 c-4 -9 -4 -19 -1 -22 3 -3 5 0 5 7 0 7 4 9 10 6 6 -3 7 1
4 9 -8 20 -10 20 -18 0z"/>
<path d="M3227 1919 c7 -7 15 -10 18 -7 3 3 -2 9 -12 12 -14 6 -15 5 -6 -5z"/>
<path d="M3025 1699 c-4 -6 -5 -12 -2 -15 2 -3 7 2 10 11 7 17 1 20 -8 4z"/>
<path d="M2981 1671 c-10 -7 -7 -9 12 -8 14 1 23 5 20 10 -6 9 -15 9 -32 -2z"/>
<path d="M2945 1619 c-4 -6 -5 -12 -2 -15 2 -3 7 2 10 11 7 17 1 20 -8 4z"/>
<path d="M2901 1591 c-10 -7 -7 -9 12 -8 14 1 23 5 20 10 -6 9 -15 9 -32 -2z"/>
<path d="M2180 1576 c0 -2 7 -7 16 -10 8 -3 12 -2 9 4 -6 10 -25 14 -25 6z"/>
<path d="M1870 1555 c-30 -7 -131 -46 -225 -85 -93 -39 -174 -72 -178 -73 -5
-1 -16 18 -26 43 -11 30 -23 46 -37 48 -32 5 -433 -138 -444 -158 -7 -12 18
-96 91 -311 181 -528 194 -562 212 -573 14 -9 61 4 223 59 114 39 214 75 223
82 13 9 14 17 4 55 -6 23 -15 51 -18 60 -8 21 46 51 131 73 67 17 86 15 539
-66 343 -62 454 -68 545 -31 37 14 180 115 420 295 201 151 372 282 381 293
66 77 28 213 -68 244 -68 23 -105 10 -381 -144 -145 -80 -266 -146 -270 -146
-4 0 -13 9 -19 20 -20 31 -53 44 -476 187 -371 125 -408 136 -487 139 -52 2
-106 -2 -140 -11z m237 -26 c13 -1 20 -6 16 -12 -4 -6 3 -8 21 -3 18 4 25 3
21 -3 -3 -7 0 -8 9 -5 9 4 16 1 16 -6 0 -7 7 -10 15 -6 8 3 15 1 15 -5 0 -6 4
-8 9 -4 5 3 12 1 16 -5 3 -5 17 -10 30 -10 13 0 27 -5 30 -10 4 -6 10 -8 15
-5 5 3 11 1 14 -4 4 -5 24 -12 46 -16 22 -4 42 -11 46 -16 3 -5 14 -9 25 -9
10 0 27 -4 37 -9 32 -16 87 -33 105 -33 9 1 15 -3 12 -9 -4 -5 3 -10 14 -10
33 -2 39 -4 47 -11 4 -5 16 -8 26 -8 10 0 30 -7 43 -16 13 -9 30 -12 36 -8 8
4 9 3 5 -4 -5 -8 2 -13 21 -14 47 -2 50 -3 66 -17 9 -7 20 -10 25 -7 5 3 18
-3 29 -14 12 -10 24 -16 29 -12 4 4 4 2 1 -4 -8 -14 28 -44 52 -44 11 0 26 6
33 14 8 7 24 17 36 20 12 4 22 12 22 17 0 6 4 8 9 4 5 -3 16 2 24 10 9 8 19
15 22 15 4 0 20 9 36 21 16 11 29 17 29 13 0 -4 12 3 27 17 14 13 23 18 19 11
-8 -13 61 25 69 39 3 4 13 5 22 2 11 -4 14 -3 9 5 -4 7 -1 12 8 12 9 0 16 4
16 9 0 5 12 12 28 16 15 3 37 15 48 26 12 11 25 19 30 18 19 -3 53 14 48 23
-4 6 2 7 16 3 15 -5 20 -3 16 3 -6 10 3 9 59 -2 24 -5 53 -27 70 -53 18 -27
29 -126 13 -117 -5 3 -8 0 -8 -6 0 -19 -45 -67 -58 -62 -7 2 -11 -2 -10 -10 2
-8 -6 -13 -19 -12 -13 0 -23 -3 -23 -8 0 -4 6 -8 13 -8 8 0 7 -3 -3 -9 -8 -6
-17 -8 -22 -5 -4 2 -12 -5 -18 -16 -6 -11 -14 -19 -18 -17 -11 3 -53 -29 -45
-36 3 -4 0 -7 -8 -7 -8 0 -30 -13 -49 -30 -19 -16 -38 -29 -42 -30 -5 0 -18
-9 -30 -19 -13 -11 -34 -29 -47 -40 -13 -12 -28 -21 -33 -21 -5 0 -6 -5 -3
-10 4 -6 2 -9 -4 -8 -9 3 -129 -83 -175 -124 -11 -10 -23 -18 -28 -18 -4 0
-23 -14 -41 -31 -37 -35 -125 -84 -146 -80 -7 1 -10 -2 -6 -8 3 -6 0 -11 -7
-12 -7 0 -24 -2 -38 -3 -37 -4 -124 -8 -130 -6 -11 3 -39 8 -145 25 -60 9
-139 23 -175 31 -36 8 -108 21 -160 29 -52 8 -115 19 -140 24 -149 31 -221 33
-297 8 -35 -11 -63 -24 -63 -30 0 -5 -7 -4 -15 3 -13 11 -14 10 -9 -5 5 -12 4
-16 -3 -12 -11 7 -40 -30 -38 -48 0 -5 7 -27 14 -48 13 -38 9 -73 -7 -63 -8 5
-122 -32 -167 -54 -11 -5 -42 -14 -69 -20 -26 -6 -61 -17 -76 -25 -34 -18
-100 -27 -101 -14 -2 14 -5 22 -17 52 -7 16 -10 32 -7 37 3 5 1 10 -4 12 -6 1
-12 15 -15 29 -2 15 -11 40 -20 57 -8 16 -13 32 -10 35 3 3 2 12 -2 19 -5 7
-9 15 -9 18 -5 34 -19 70 -26 70 -6 0 -7 4 -4 10 3 5 -1 23 -10 40 -8 16 -13
30 -9 30 4 0 1 6 -5 14 -7 8 -14 26 -17 40 -2 14 -9 38 -16 53 -6 16 -12 31
-13 36 -2 4 -3 8 -4 10 -2 1 -4 13 -7 26 -2 14 -9 30 -15 38 -6 7 -8 13 -4 13
4 0 2 7 -5 15 -7 8 -10 15 -6 15 3 0 -5 30 -19 66 -34 91 -33 100 19 124 25
11 53 22 63 23 48 10 143 41 143 48 0 4 7 10 16 13 10 4 13 2 8 -7 -5 -8 -2
-7 9 2 9 7 17 11 17 7 0 -4 13 0 29 8 45 24 78 26 93 8 11 -13 11 -15 -2 -7
-8 4 -4 -4 10 -20 14 -16 18 -24 10 -20 -13 8 -13 6 -1 -8 7 -9 17 -15 21 -12
5 3 10 1 12 -4 1 -5 22 -1 45 10 55 25 86 37 94 35 4 0 16 8 28 18 12 11 24
16 28 13 3 -4 0 -7 -7 -7 -7 0 -10 -3 -7 -7 4 -3 16 2 28 13 12 10 24 18 28
18 6 -2 41 10 79 26 12 6 32 14 45 20 12 5 38 12 57 15 19 3 35 7 36 8 2 2
126 -1 191 -4z"/>
<path d="M1895 1503 c-26 -5 -72 -21 -110 -38 -118 -52 -224 -90 -245 -88 -22
2 -23 1 -5 -7 20 -9 20 -9 0 -9 -31 -1 -62 -27 -67 -55 -3 -14 -3 -28 0 -31 3
-3 7 -11 8 -18 3 -10 31 -96 52 -157 3 -8 4 -21 3 -29 -1 -8 2 -10 9 -6 9 5
10 1 6 -13 -4 -11 -1 -26 7 -34 8 -7 14 -20 15 -28 1 -19 29 -99 43 -124 8
-13 7 -16 -1 -11 -13 8 19 -46 33 -56 5 -3 8 -10 8 -15 -1 -14 20 -9 69 14 25
12 51 22 58 22 6 0 12 4 12 9 0 5 10 9 23 9 12 0 54 1 92 2 39 1 97 -5 130
-14 33 -8 80 -18 105 -22 25 -3 54 -7 65 -9 11 -2 63 -11 115 -20 52 -8 119
-20 147 -26 29 -6 74 -13 100 -15 27 -3 54 -7 62 -10 8 -2 37 -7 65 -10 28 -3
56 -6 62 -8 19 -7 110 14 149 34 21 11 42 17 48 13 6 -3 7 -1 3 5 -3 6 2 13
12 16 10 3 38 24 62 46 25 22 50 40 55 40 6 0 28 16 50 35 52 46 54 47 98 74
20 12 37 26 37 31 0 5 18 16 40 26 21 10 37 21 34 25 -2 4 5 10 16 14 11 3 28
17 38 30 11 13 22 21 26 18 3 -3 6 -2 6 4 0 6 36 34 80 62 47 31 77 57 74 63
-4 7 -2 8 4 4 6 -4 29 11 52 32 35 35 40 45 40 84 0 46 -18 71 -65 96 -22 11
-105 -5 -105 -21 0 -4 -4 -6 -9 -3 -5 3 -12 -1 -15 -10 -3 -8 -10 -13 -15 -9
-5 3 -12 1 -16 -5 -10 -17 -102 -60 -110 -52 -5 4 -6 3 -3 -3 3 -5 -6 -19 -20
-29 -14 -11 -22 -14 -18 -8 4 7 -12 -1 -36 -17 -24 -16 -53 -32 -65 -35 -13
-4 -23 -11 -23 -15 0 -4 -6 -8 -13 -8 -6 0 -30 -11 -52 -24 -22 -14 -57 -33
-77 -44 -20 -10 -35 -23 -32 -27 3 -4 -2 -8 -10 -8 -15 0 -20 -14 -19 -47 1
-7 -3 -11 -7 -8 -8 5 -24 -24 -21 -38 1 -5 -3 -6 -9 -2 -5 3 -10 2 -10 -3 0
-29 -122 -39 -155 -12 -15 12 -17 12 -10 1 7 -12 2 -13 -26 -7 -19 4 -49 9
-68 12 -19 2 -37 6 -41 9 -3 2 -29 7 -56 10 -48 5 -94 12 -144 21 -14 2 -41 6
-60 9 -19 2 -77 12 -127 22 -97 18 -129 38 -63 38 21 0 36 -4 33 -9 -4 -5 1
-7 10 -3 9 3 48 0 86 -9 39 -8 74 -13 78 -12 5 1 33 -4 63 -10 30 -6 74 -13
97 -14 22 -2 39 -7 36 -12 -3 -5 6 -7 21 -4 15 3 46 1 69 -4 23 -5 51 -11 62
-13 57 -9 101 -17 106 -21 11 -6 70 22 62 29 -3 4 1 7 10 7 9 0 16 3 15 8 -1
4 4 18 11 30 26 48 -19 114 -94 138 -5 2 -77 27 -160 55 -82 28 -157 51 -165
52 -8 1 -17 4 -20 7 -6 6 -151 58 -195 70 -16 4 -75 24 -130 44 -85 30 -112
35 -180 35 -44 -1 -89 -3 -100 -6z m585 -162 c413 -140 440 -152 440 -207 0
-32 -33 -64 -67 -64 -16 0 -165 23 -333 50 -168 27 -322 53 -343 56 -44 7 -67
-7 -67 -42 0 -26 19 -39 70 -47 566 -92 675 -108 706 -102 46 8 92 50 108 100
15 45 -12 27 351 227 116 64 217 117 225 119 51 10 101 -42 85 -90 -10 -32
-707 -550 -779 -579 -81 -33 -132 -29 -571 47 -198 34 -386 63 -417 63 -62 0
-108 -12 -180 -49 -27 -13 -48 -22 -48 -20 0 2 -38 115 -85 252 -47 137 -82
252 -78 256 13 12 346 148 389 158 21 6 75 9 119 7 74 -2 116 -14 475 -135z"/>
<path d="M3550 1369 c0 -5 5 -7 10 -4 6 3 10 8 10 11 0 2 -4 4 -10 4 -5 0 -10
-5 -10 -11z"/>
<path d="M3476 1352 c-3 -5 1 -9 9 -9 8 0 12 4 9 9 -3 4 -7 8 -9 8 -2 0 -6 -4
-9 -8z"/>
<path d="M3060 1116 c0 -2 7 -7 16 -10 8 -3 12 -2 9 4 -6 10 -25 14 -25 6z"/>
<path d="M3138 1008 c-9 -5 -6 -7 9 -5 12 2 25 6 28 8 8 9 -23 6 -37 -3z"/>
<path d="M2910 846 c0 -2 7 -7 16 -10 8 -3 12 -2 9 4 -6 10 -25 14 -25 6z"/>
<path d="M1335 1413 c-11 -3 -33 -11 -50 -17 -16 -7 -70 -25 -119 -41 -48 -16
-95 -35 -102 -43 -8 -7 -14 -10 -14 -5 0 4 -5 0 -11 -10 -11 -19 8 -112 36
-171 15 -32 43 -110 50 -136 2 -8 9 -28 15 -45 6 -16 14 -39 16 -50 2 -10 11
-34 19 -52 9 -19 18 -41 20 -51 2 -9 13 -46 25 -82 12 -36 24 -76 26 -90 3
-14 15 -43 28 -65 20 -37 25 -40 61 -37 21 2 52 11 69 20 17 9 36 17 41 18 35
5 75 18 75 24 0 5 10 6 22 2 16 -4 19 -2 13 8 -6 10 -4 12 7 8 17 -7 78 26 78
42 0 6 5 8 11 4 8 -4 8 0 0 15 -7 11 -9 21 -7 21 3 0 -3 15 -13 33 -10 17 -30
73 -46 122 -15 50 -30 95 -34 100 -3 6 -6 12 -6 15 -5 33 -20 79 -31 97 -7 11
-15 32 -18 45 -6 29 -65 207 -77 230 -5 10 -9 26 -9 36 0 19 -35 63 -48 61 -4
-1 -16 -3 -27 -6z m35 -26 c0 -2 56 -169 125 -370 69 -202 125 -369 125 -371
0 -5 -310 -109 -314 -105 -1 2 -30 88 -65 192 -35 103 -91 269 -126 369 l-63
182 152 52 c150 52 166 57 166 51z"/>
<path d="M1183 1015 c0 -8 4 -12 9 -9 5 3 6 10 3 15 -9 13 -12 11 -12 -6z"/>
<path d="M1350 615 c0 -2 6 -8 13 -14 10 -8 14 -7 14 2 0 8 -6 14 -14 14 -7 0
-13 -1 -13 -2z"/>
<path d="M1330 596 c0 -2 7 -7 16 -10 8 -3 12 -2 9 4 -6 10 -25 14 -25 6z"/>
<path d="M2571 1554 c0 -11 3 -14 6 -6 3 7 2 16 -1 19 -3 4 -6 -2 -5 -13z"/>
<path d="M2865 1539 c-4 -6 -5 -12 -2 -15 2 -3 7 2 10 11 7 17 1 20 -8 4z"/>
<path d="M2823 1516 c-9 -11 -7 -14 12 -12 17 1 21 4 13 14 -12 14 -10 14 -25
-2z"/>
<path d="M1150 1490 c8 -5 20 -10 25 -10 6 0 3 5 -5 10 -8 5 -19 10 -25 10 -5
0 -3 -5 5 -10z"/>
<path d="M3746 1482 c-2 -4 -1 -14 4 -22 7 -11 9 -9 7 8 -1 24 -3 26 -11 14z"/>
<path d="M2515 1460 c3 -5 8 -10 11 -10 2 0 4 5 4 10 0 6 -5 10 -11 10 -5 0
-7 -4 -4 -10z"/>
<path d="M3227 1402 c5 -10 8 -11 13 -2 5 7 13 9 20 5 8 -5 11 -4 6 3 -10 16
-45 11 -39 -6z"/>
<path d="M2716 1398 c3 -5 10 -6 15 -3 13 9 11 12 -6 12 -8 0 -12 -4 -9 -9z"/>
<path d="M2946 1323 c-6 -14 -5 -15 5 -6 7 7 10 15 7 18 -3 3 -9 -2 -12 -12z"/>
<path d="M3086 1317 c3 -10 9 -15 12 -12 3 3 0 11 -7 18 -10 9 -11 8 -5 -6z"/>
<path d="M3040 1304 c0 -1 8 -8 17 -15 9 -8 14 -9 10 -2 -4 6 -1 13 5 16 7 3
3 4 -9 4 -13 -1 -23 -2 -23 -3z"/>
<path d="M3585 1121 c-3 -5 -2 -12 3 -15 5 -3 9 1 9 9 0 17 -3 19 -12 6z"/>
<path d="M3415 990 c-18 -20 -18 -21 0 -14 14 6 16 4 10 -7 -4 -8 -4 -11 0 -6
7 6 16 47 10 47 -1 0 -10 -9 -20 -20z"/>
<path d="M1800 746 c0 -2 7 -7 16 -10 8 -3 12 -2 9 4 -6 10 -25 14 -25 6z"/>
<path d="M3040 716 c0 -2 7 -7 16 -10 8 -3 12 -2 9 4 -6 10 -25 14 -25 6z"/>
<path d="M2940 641 c0 -6 4 -13 10 -16 6 -3 7 1 4 9 -7 18 -14 21 -14 7z"/>
<path d="M1736 552 c-3 -5 1 -9 9 -9 8 0 12 4 9 9 -3 4 -7 8 -9 8 -2 0 -6 -4
-9 -8z"/>
<path d="M1204 425 c2 -30 20 -52 31 -36 3 7 1 10 -6 9 -8 -2 -13 6 -14 19 0
12 -3 24 -6 27 -3 4 -5 -5 -5 -19z"/>
</g>
</svg>
